<svg width="34" height="34" viewBox="0 0 34 34" fill="none" xmlns="http://www.w3.org/2000/svg">
<path fill-rule="evenodd" clip-rule="evenodd" d="M8 0C3.58172 0 0 3.58172 0 8V26C0 30.4183 3.58172 34 8 34H26C30.4183 34 34 30.4183 34 26V8C34 3.58172 30.4183 0 26 0H8ZM10.5739 24.661C9.90767 24.1347 9.80721 23.184 10.3495 22.5375L14.9942 17.0003L10.3492 11.4624C9.80685 10.8159 9.90734 9.86515 10.5736 9.33891C11.2398 8.81266 12.2196 8.91017 12.7619 9.5567L16.9999 14.6093L21.2382 9.55659C21.7805 8.91007 22.7602 8.81258 23.4264 9.33884C24.0927 9.8651 24.1931 10.8158 23.6508 11.4623L19.0054 17.0003L23.6501 22.5377C24.1924 23.1842 24.0919 24.1349 23.4256 24.6612C22.7594 25.1874 21.7797 25.0899 21.2374 24.4434L16.9998 19.3913L12.7622 24.4432C12.2199 25.0898 11.2402 25.1872 10.5739 24.661Z" fill="#0084FD"/>
</svg>
